<svg xmlns="http://www.w3.org/2000/svg" viewBox="0 0 24 24" fill="currentColor">
  <path d="M17.6 9.48H6.4v8.82c0 .61.49 1.1 1.1 1.1h.8V22a1 1 0 0 0 2 0v-2.6h3.4V22a1 1 0 0 0 2 0v-2.6h.8c.61 0 1.1-.49 1.1-1.1V9.48ZM4.1 9.6a1 1 0 0 0-1 1v5.9a1 1 0 1 0 2 0v-5.9a1 1 0 0 0-1-1Zm15.8 0a1 1 0 0 0-1 1v5.9a1 1 0 1 0 2 0v-5.9a1 1 0 0 0-1-1ZM7.02 8.1h9.96a5.04 5.04 0 0 0-2.18-3.36l1.03-1.54a.45.45 0 1 0-.75-.5L14 4.3a6.38 6.38 0 0 0-4 0L8.92 2.7a.45.45 0 1 0-.75.5L9.2 4.74A5.04 5.04 0 0 0 7.02 8.1ZM9.5 6.4a.6.6 0 1 1 0-1.2.6.6 0 0 1 0 1.2Zm5 0a.6.6 0 1 1 0-1.2.6.6 0 0 1 0 1.2Z"/>
</svg>
